<svg width="229" height="85" viewBox="0 0 229 85" fill="none" xmlns="http://www.w3.org/2000/svg">
<path d="M97.9858 38.5653C97.9176 37.8778 97.625 37.3437 97.108 36.9631C96.5909 36.5824 95.8892 36.392 95.0028 36.392C94.4006 36.392 93.892 36.4773 93.4773 36.6477C93.0625 36.8125 92.7443 37.0426 92.5227 37.3381C92.3068 37.6335 92.1989 37.9688 92.1989 38.3438C92.1875 38.6562 92.2528 38.929 92.3949 39.1619C92.5426 39.3949 92.7443 39.5966 93 39.767C93.2557 39.9318 93.5511 40.0767 93.8864 40.2017C94.2216 40.321 94.5795 40.4233 94.9602 40.5085L96.5284 40.8835C97.2898 41.054 97.9886 41.2812 98.625 41.5653C99.2614 41.8494 99.8125 42.1989 100.278 42.6136C100.744 43.0284 101.105 43.517 101.361 44.0795C101.622 44.642 101.756 45.2869 101.761 46.0142C101.756 47.0824 101.483 48.0085 100.943 48.7926C100.409 49.571 99.6364 50.1761 98.625 50.608C97.6193 51.0341 96.4063 51.2472 94.9858 51.2472C93.5767 51.2472 92.3494 51.0312 91.304 50.5994C90.2642 50.1676 89.4517 49.5284 88.8665 48.6818C88.2869 47.8295 87.983 46.7756 87.9545 45.5199H91.5256C91.5653 46.1051 91.733 46.5937 92.0284 46.9858C92.3295 47.3722 92.7301 47.6648 93.2301 47.8636C93.7358 48.0568 94.3068 48.1534 94.9432 48.1534C95.5682 48.1534 96.1108 48.0625 96.571 47.8807C97.0369 47.6989 97.3977 47.446 97.6534 47.1222C97.9091 46.7983 98.0369 46.4261 98.0369 46.0057C98.0369 45.6136 97.9205 45.2841 97.6875 45.017C97.4602 44.75 97.125 44.5227 96.6818 44.3352C96.2443 44.1477 95.7074 43.9773 95.071 43.8239L93.1705 43.3466C91.6989 42.9886 90.5369 42.429 89.6847 41.6676C88.8324 40.9062 88.4091 39.8807 88.4148 38.5909C88.4091 37.5341 88.6903 36.6108 89.2585 35.821C89.8324 35.0312 90.6193 34.4148 91.6193 33.9716C92.6193 33.5284 93.7557 33.3068 95.0284 33.3068C96.3239 33.3068 97.4545 33.5284 98.4205 33.9716C99.392 34.4148 100.148 35.0312 100.688 35.821C101.227 36.6108 101.506 37.5256 101.523 38.5653H97.9858ZM166.165 38.5653C166.097 37.8778 165.805 37.3437 165.288 36.9631C164.771 36.5824 164.069 36.392 163.183 36.392C162.58 36.392 162.072 36.4773 161.657 36.6477C161.242 36.8125 160.924 37.0426 160.702 37.3381C160.487 37.6335 160.379 37.9688 160.379 38.3438C160.367 38.6562 160.433 38.929 160.575 39.1619C160.722 39.3949 160.924 39.5966 161.18 39.767C161.435 39.9318 161.731 40.0767 162.066 40.2017C162.401 40.321 162.759 40.4233 163.14 40.5085L164.708 40.8835C165.469 41.054 166.168 41.2812 166.805 41.5653C167.441 41.8494 167.992 42.1989 168.458 42.6136C168.924 43.0284 169.285 43.517 169.54 44.0795C169.802 44.642 169.935 45.2869 169.941 46.0142C169.935 47.0824 169.663 48.0085 169.123 48.7926C168.589 49.571 167.816 50.1761 166.805 50.608C165.799 51.0341 164.586 51.2472 163.165 51.2472C161.756 51.2472 160.529 51.0312 159.484 50.5994C158.444 50.1676 157.631 49.5284 157.046 48.6818C156.467 47.8295 156.163 46.7756 156.134 45.5199H159.705C159.745 46.1051 159.913 46.5937 160.208 46.9858C160.509 47.3722 160.91 47.6648 161.41 47.8636C161.915 48.0568 162.487 48.1534 163.123 48.1534C163.748 48.1534 164.29 48.0625 164.751 47.8807C165.217 47.6989 165.577 47.446 165.833 47.1222C166.089 46.7983 166.217 46.4261 166.217 46.0057C166.217 45.6136 166.1 45.2841 165.867 45.017C165.64 44.75 165.305 44.5227 164.862 44.3352C164.424 44.1477 163.887 43.9773 163.251 43.8239L161.35 43.3466C159.879 42.9886 158.717 42.429 157.864 41.6676C157.012 40.9062 156.589 39.8807 156.594 38.5909C156.589 37.5341 156.87 36.6108 157.438 35.821C158.012 35.0312 158.799 34.4148 159.799 33.9716C160.799 33.5284 161.935 33.3068 163.208 33.3068C164.504 33.3068 165.634 33.5284 166.6 33.9716C167.572 34.4148 168.327 35.0312 168.867 35.821C169.407 36.6108 169.685 37.5256 169.702 38.5653H166.165Z" fill="#637AF6"/>
<path d="M107.806 43.4318V51H104.175V33.5455H107.704V40.2188H107.857C108.153 39.446 108.63 38.8409 109.289 38.4034C109.948 37.9602 110.775 37.7386 111.769 37.7386C112.678 37.7386 113.471 37.9375 114.147 38.3352C114.829 38.7273 115.357 39.2926 115.732 40.0312C116.113 40.7642 116.3 41.642 116.295 42.6648V51H112.664V43.3125C112.67 42.5057 112.465 41.8778 112.05 41.429C111.641 40.9801 111.067 40.7557 110.329 40.7557C109.835 40.7557 109.397 40.8608 109.016 41.071C108.641 41.2812 108.346 41.5881 108.13 41.9915C107.92 42.3892 107.812 42.8693 107.806 43.4318ZM122.885 51.2472C122.05 51.2472 121.305 51.1023 120.652 50.8125C119.999 50.517 119.482 50.0824 119.101 49.5085C118.726 48.929 118.538 48.2074 118.538 47.3438C118.538 46.6165 118.672 46.0057 118.939 45.5114C119.206 45.017 119.57 44.6193 120.03 44.3182C120.49 44.017 121.013 43.7898 121.598 43.6364C122.189 43.483 122.808 43.375 123.456 43.3125C124.217 43.233 124.831 43.1591 125.297 43.0909C125.763 43.017 126.101 42.9091 126.311 42.767C126.521 42.625 126.626 42.4148 126.626 42.1364V42.0852C126.626 41.5455 126.456 41.1278 126.115 40.8324C125.78 40.5369 125.303 40.3892 124.683 40.3892C124.03 40.3892 123.51 40.5341 123.124 40.8239C122.737 41.108 122.482 41.4659 122.357 41.8977L118.999 41.625C119.169 40.8295 119.504 40.142 120.004 39.5625C120.504 38.9773 121.149 38.5284 121.939 38.2159C122.734 37.8977 123.655 37.7386 124.7 37.7386C125.428 37.7386 126.124 37.8239 126.788 37.9943C127.459 38.1648 128.053 38.429 128.57 38.7869C129.092 39.1449 129.504 39.6051 129.805 40.1676C130.107 40.7244 130.257 41.392 130.257 42.1705V51H126.814V49.1847H126.712C126.501 49.5938 126.22 49.9545 125.868 50.267C125.516 50.5739 125.092 50.8153 124.598 50.9915C124.104 51.1619 123.533 51.2472 122.885 51.2472ZM123.925 48.7415C124.459 48.7415 124.93 48.6364 125.339 48.4261C125.749 48.2102 126.07 47.9205 126.303 47.5568C126.536 47.1932 126.652 46.7812 126.652 46.321V44.9318C126.538 45.0057 126.382 45.0739 126.183 45.1364C125.99 45.1932 125.771 45.2472 125.527 45.2983C125.283 45.3437 125.038 45.3864 124.794 45.4261C124.55 45.4602 124.328 45.4915 124.129 45.5199C123.703 45.5824 123.331 45.6818 123.013 45.8182C122.695 45.9545 122.447 46.1392 122.271 46.3722C122.095 46.5994 122.007 46.8835 122.007 47.2244C122.007 47.7188 122.186 48.0966 122.544 48.358C122.908 48.6136 123.368 48.7415 123.925 48.7415ZM133.074 51V37.9091H136.594V40.1932H136.73C136.969 39.3807 137.369 38.767 137.932 38.3523C138.494 37.9318 139.142 37.7216 139.875 37.7216C140.057 37.7216 140.253 37.733 140.463 37.7557C140.673 37.7784 140.858 37.8097 141.017 37.8494V41.071C140.847 41.0199 140.611 40.9744 140.31 40.9347C140.009 40.8949 139.733 40.875 139.483 40.875C138.949 40.875 138.472 40.9915 138.051 41.2244C137.636 41.4517 137.307 41.7699 137.062 42.179C136.824 42.5881 136.705 43.0597 136.705 43.5938V51H133.074ZM148.251 51.2557C146.904 51.2557 145.745 50.983 144.773 50.4375C143.808 49.8864 143.063 49.108 142.54 48.1023C142.018 47.0909 141.756 45.8949 141.756 44.5142C141.756 43.1676 142.018 41.9858 142.54 40.9688C143.063 39.9517 143.799 39.1591 144.748 38.5909C145.702 38.0227 146.822 37.7386 148.106 37.7386C148.969 37.7386 149.773 37.8778 150.518 38.1562C151.268 38.429 151.921 38.8409 152.478 39.392C153.04 39.9432 153.478 40.6364 153.79 41.4716C154.103 42.3011 154.259 43.2727 154.259 44.3864V45.3835H143.205V43.1335H150.842C150.842 42.6108 150.728 42.1477 150.501 41.7443C150.273 41.3409 149.958 41.0256 149.555 40.7983C149.157 40.5653 148.694 40.4489 148.165 40.4489C147.614 40.4489 147.126 40.5767 146.7 40.8324C146.279 41.0824 145.95 41.4205 145.711 41.8466C145.472 42.267 145.35 42.7358 145.344 43.2528V45.392C145.344 46.0398 145.464 46.5994 145.702 47.071C145.947 47.5426 146.29 47.9062 146.734 48.1619C147.177 48.4176 147.702 48.5455 148.31 48.5455C148.714 48.5455 149.083 48.4886 149.418 48.375C149.754 48.2614 150.04 48.0909 150.279 47.8636C150.518 47.6364 150.7 47.358 150.825 47.0284L154.183 47.25C154.012 48.0568 153.663 48.7614 153.134 49.3636C152.612 49.9602 151.935 50.4261 151.106 50.7614C150.282 51.0909 149.33 51.2557 148.251 51.2557ZM172.355 55.9091V37.9091H175.935V40.108H176.097C176.256 39.7557 176.486 39.3977 176.787 39.0341C177.094 38.6648 177.491 38.358 177.98 38.1136C178.474 37.8636 179.088 37.7386 179.821 37.7386C180.776 37.7386 181.656 37.9886 182.463 38.4886C183.27 38.983 183.915 39.7301 184.398 40.7301C184.881 41.7244 185.122 42.9716 185.122 44.4716C185.122 45.9318 184.886 47.1648 184.415 48.1705C183.949 49.1705 183.313 49.929 182.506 50.446C181.705 50.9574 180.807 51.2131 179.812 51.2131C179.108 51.2131 178.509 51.0966 178.014 50.8636C177.526 50.6307 177.125 50.3381 176.812 49.9858C176.5 49.6278 176.261 49.267 176.097 48.9034H175.986V55.9091H172.355ZM175.909 44.4545C175.909 45.233 176.017 45.9119 176.233 46.4915C176.449 47.071 176.761 47.5227 177.17 47.8466C177.58 48.1648 178.077 48.3239 178.662 48.3239C179.253 48.3239 179.753 48.1619 180.162 47.8381C180.571 47.5085 180.881 47.054 181.091 46.4744C181.307 45.8892 181.415 45.2159 181.415 44.4545C181.415 43.6989 181.31 43.0341 181.099 42.4602C180.889 41.8864 180.58 41.4375 180.17 41.1136C179.761 40.7898 179.259 40.6278 178.662 40.6278C178.071 40.6278 177.571 40.7841 177.162 41.0966C176.759 41.4091 176.449 41.8523 176.233 42.4261C176.017 43 175.909 43.6761 175.909 44.4545ZM191.276 51.2472C190.44 51.2472 189.696 51.1023 189.043 50.8125C188.389 50.517 187.872 50.0824 187.491 49.5085C187.116 48.929 186.929 48.2074 186.929 47.3438C186.929 46.6165 187.063 46.0057 187.33 45.5114C187.597 45.017 187.96 44.6193 188.42 44.3182C188.881 44.017 189.403 43.7898 189.989 43.6364C190.58 43.483 191.199 43.375 191.847 43.3125C192.608 43.233 193.222 43.1591 193.688 43.0909C194.153 43.017 194.491 42.9091 194.702 42.767C194.912 42.625 195.017 42.4148 195.017 42.1364V42.0852C195.017 41.5455 194.847 41.1278 194.506 40.8324C194.17 40.5369 193.693 40.3892 193.074 40.3892C192.42 40.3892 191.901 40.5341 191.514 40.8239C191.128 41.108 190.872 41.4659 190.747 41.8977L187.389 41.625C187.56 40.8295 187.895 40.142 188.395 39.5625C188.895 38.9773 189.54 38.5284 190.33 38.2159C191.125 37.8977 192.045 37.7386 193.091 37.7386C193.818 37.7386 194.514 37.8239 195.179 37.9943C195.849 38.1648 196.443 38.429 196.96 38.7869C197.483 39.1449 197.895 39.6051 198.196 40.1676C198.497 40.7244 198.648 41.392 198.648 42.1705V51H195.205V49.1847H195.102C194.892 49.5938 194.611 49.9545 194.259 50.267C193.906 50.5739 193.483 50.8153 192.989 50.9915C192.494 51.1619 191.923 51.2472 191.276 51.2472ZM192.315 48.7415C192.849 48.7415 193.321 48.6364 193.73 48.4261C194.139 48.2102 194.46 47.9205 194.693 47.5568C194.926 47.1932 195.043 46.7812 195.043 46.321V44.9318C194.929 45.0057 194.773 45.0739 194.574 45.1364C194.381 45.1932 194.162 45.2472 193.918 45.2983C193.673 45.3437 193.429 45.3864 193.185 45.4261C192.94 45.4602 192.719 45.4915 192.52 45.5199C192.094 45.5824 191.722 45.6818 191.403 45.8182C191.085 45.9545 190.838 46.1392 190.662 46.3722C190.486 46.5994 190.398 46.8835 190.398 47.2244C190.398 47.7188 190.577 48.0966 190.935 48.358C191.298 48.6136 191.759 48.7415 192.315 48.7415ZM207.379 51.2557C206.038 51.2557 204.885 50.9716 203.919 50.4034C202.959 49.8295 202.22 49.0341 201.703 48.017C201.192 47 200.936 45.8295 200.936 44.5057C200.936 43.1648 201.195 41.9886 201.712 40.9773C202.234 39.9602 202.976 39.1676 203.936 38.5994C204.896 38.0256 206.038 37.7386 207.362 37.7386C208.504 37.7386 209.504 37.946 210.362 38.3608C211.22 38.7756 211.899 39.358 212.399 40.108C212.899 40.858 213.175 41.7386 213.226 42.75H209.8C209.703 42.0966 209.447 41.571 209.033 41.1733C208.624 40.7699 208.087 40.5682 207.422 40.5682C206.859 40.5682 206.368 40.7216 205.947 41.0284C205.533 41.3295 205.209 41.7699 204.976 42.3494C204.743 42.929 204.626 43.6307 204.626 44.4545C204.626 45.2898 204.74 46 204.967 46.5852C205.2 47.1705 205.527 47.6165 205.947 47.9233C206.368 48.2301 206.859 48.3835 207.422 48.3835C207.837 48.3835 208.209 48.2983 208.538 48.1278C208.874 47.9574 209.149 47.7102 209.365 47.3864C209.587 47.0568 209.732 46.6619 209.8 46.2017H213.226C213.169 47.2017 212.896 48.0824 212.408 48.8438C211.925 49.5994 211.257 50.1903 210.405 50.6165C209.553 51.0426 208.544 51.2557 207.379 51.2557ZM221.516 51.2557C220.17 51.2557 219.011 50.983 218.039 50.4375C217.073 49.8864 216.329 49.108 215.806 48.1023C215.283 47.0909 215.022 45.8949 215.022 44.5142C215.022 43.1676 215.283 41.9858 215.806 40.9688C216.329 39.9517 217.065 39.1591 218.013 38.5909C218.968 38.0227 220.087 37.7386 221.371 37.7386C222.235 37.7386 223.039 37.8778 223.783 38.1562C224.533 38.429 225.187 38.8409 225.744 39.392C226.306 39.9432 226.744 40.6364 227.056 41.4716C227.369 42.3011 227.525 43.2727 227.525 44.3864V45.3835H216.471V43.1335H224.107C224.107 42.6108 223.994 42.1477 223.766 41.7443C223.539 41.3409 223.224 41.0256 222.82 40.7983C222.423 40.5653 221.96 40.4489 221.431 40.4489C220.88 40.4489 220.391 40.5767 219.965 40.8324C219.545 41.0824 219.215 41.4205 218.977 41.8466C218.738 42.267 218.616 42.7358 218.61 43.2528V45.392C218.61 46.0398 218.729 46.5994 218.968 47.071C219.212 47.5426 219.556 47.9062 219.999 48.1619C220.442 48.4176 220.968 48.5455 221.576 48.5455C221.979 48.5455 222.349 48.4886 222.684 48.375C223.019 48.2614 223.306 48.0909 223.545 47.8636C223.783 47.6364 223.965 47.358 224.09 47.0284L227.448 47.25C227.278 48.0568 226.928 48.7614 226.4 49.3636C225.877 49.9602 225.201 50.4261 224.371 50.7614C223.548 51.0909 222.596 51.2557 221.516 51.2557Z" fill="black"/>
<g filter="url(#filter0_i_120_26)">
<rect y="42.5" width="60.1041" height="60.1041" rx="20" transform="rotate(-45 0 42.5)" fill="#4F46E5"/>
</g>
<path d="M65.6882 53.5486V56.3611H49.3246V53.5486H65.6882Z" fill="white"/>
<path d="M41.2843 47.3055C38.4041 47.3055 35.9353 49.6371 35.9353 52.6545C35.9353 55.5348 38.2669 58.0036 41.2843 58.0036C44.1646 58.0036 46.6334 55.672 46.6334 52.6545C46.6334 49.6371 44.3017 47.3055 41.2843 47.3055ZM41.2843 55.1233C39.9128 55.1233 38.6784 54.0261 38.6784 52.5174C38.6784 51.1458 39.7756 49.9115 41.2843 49.9115C42.6559 49.9115 43.8903 51.0087 43.8903 52.5174C43.8903 54.0261 42.793 55.1233 41.2843 55.1233Z" fill="white"/>
<path d="M31.1338 41.9563C31.2709 41.9563 31.5452 41.9563 31.6824 41.8192L37.1686 39.0761C38.1287 40.3104 39.6374 41.1334 41.2832 41.1334C44.3006 40.9962 46.6323 38.6646 46.6323 35.7843C46.6323 32.9041 44.3006 30.4353 41.2832 30.4353C38.403 30.4353 35.9342 32.7669 35.9342 35.7843C35.9342 36.0587 35.9342 36.333 36.0713 36.6073L30.448 39.3504C29.7622 39.7618 29.4879 40.5848 29.8994 41.1334C30.0365 41.682 30.5852 41.9563 31.1338 41.9563ZM41.2832 33.1784C42.6548 33.1784 43.8892 34.2756 43.8892 35.7843C43.8892 37.1559 42.7919 38.3903 41.2832 38.3903C39.9117 38.3903 38.6773 37.293 38.6773 35.7843C38.8144 34.2756 39.9117 33.1784 41.2832 33.1784Z" fill="white"/>
<path d="M35.2488 48.2658L29.6254 45.5227C29.7626 45.1112 29.7626 44.6998 29.7626 44.1511C29.7626 41.2709 27.4309 38.8021 24.4135 38.8021C21.3961 38.8021 19.2017 41.2709 19.2017 44.1511C19.2017 47.0314 21.5333 49.5002 24.5507 49.5002C26.0594 49.5002 27.4309 48.9515 28.391 47.8543L34.1515 50.7346C34.2887 50.8717 34.563 50.8717 34.7002 50.8717C35.2488 50.8717 35.6602 50.5974 35.9345 50.0488C36.2089 49.5002 35.9345 48.6772 35.2488 48.2658ZM24.5507 46.7571C23.042 46.7571 21.9448 45.5227 21.9448 44.1511C21.9448 42.7796 23.042 41.5452 24.5507 41.5452C25.9222 41.5452 27.1566 42.6424 27.1566 44.1511C27.0195 45.5227 25.9222 46.7571 24.5507 46.7571Z" fill="white"/>
<defs>
<filter id="filter0_i_120_26" x="8.28418" y="8.28427" width="75.4316" height="72.4315" filterUnits="userSpaceOnUse" color-interpolation-filters="sRGB">
<feFlood flood-opacity="0" result="BackgroundImageFix"/>
<feBlend mode="normal" in="SourceGraphic" in2="BackgroundImageFix" result="shape"/>
<feColorMatrix in="SourceAlpha" type="matrix" values="0 0 0 0 0 0 0 0 0 0 0 0 0 0 0 0 0 0 127 0" result="hardAlpha"/>
<feOffset dx="10" dy="4"/>
<feGaussianBlur stdDeviation="3.5"/>
<feComposite in2="hardAlpha" operator="arithmetic" k2="-1" k3="1"/>
<feColorMatrix type="matrix" values="0 0 0 0 0 0 0 0 0 0 0 0 0 0 0 0 0 0 0.25 0"/>
<feBlend mode="normal" in2="shape" result="effect1_innerShadow_120_26"/>
</filter>
</defs>
</svg>
